HIERARCHY
ROOT Hips
{
	OFFSET 0.00000 0.00000 0.00000
	CHANNELS 6 Xposition Yposition Zposition Zrotation Yrotation Xrotation 
	JOINT LHipJoint
	{
		OFFSET 0 0 0
		CHANNELS 3 Zrotation Yrotation Xrotation
		JOINT LeftHip
		{
			OFFSET 1.74857 -1.85566 0.69197
			CHANNELS 3 Zrotation Yrotation Xrotation
			JOINT LeftKnee
			{
				OFFSET 2.40003 -6.59403 0.00000
				CHANNELS 3 Zrotation Yrotation Xrotation
				JOINT LeftAnkle
				{
					OFFSET 2.82169 -7.75254 0.00000
					CHANNELS 3 Zrotation Yrotation Xrotation
					JOINT LeftToe
					{
						OFFSET 0.16466 -0.45240 2.26890
						CHANNELS 3 Zrotation Yrotation Xrotation
						End Site
						{
							OFFSET 0.00000 -0.00000 1.16486
						}
					}
				}
			}
		}
	}
	JOINT RHipJoint
	{
		OFFSET 0 0 0
		CHANNELS 3 Zrotation Yrotation Xrotation
		JOINT RightHip
		{
			OFFSET -1.64169 -1.85566 0.69197
			CHANNELS 3 Zrotation Yrotation Xrotation
			JOINT RightKnee
			{
				OFFSET -2.41814 -6.64379 0.00000
				CHANNELS 3 Zrotation Yrotation Xrotation
				JOINT RightAnkle
				{
					OFFSET -2.80588 -7.70911 0.00000
					CHANNELS 3 Zrotation Yrotation Xrotation
					JOINT RightToe
					{
						OFFSET -0.19098 -0.52472 2.25401
						CHANNELS 3 Zrotation Yrotation Xrotation
						End Site
						{
							OFFSET -0.00000 -0.00000 1.16333
						}
					}
				}
			}
		}
	}
	JOINT lowerback
	{
		OFFSET 0 0 0
		CHANNELS 3 Zrotation Yrotation Xrotation
		JOINT Chest
		{
			OFFSET -0.02828 2.14690 -0.11061
			CHANNELS 3 Zrotation Yrotation Xrotation
			JOINT Chest2
			{
				OFFSET -0.00167 2.15299 0.00759
				CHANNELS 3 Zrotation Yrotation Xrotation
				JOINT lowerneck
				{
					OFFSET 0 0 0
					CHANNELS 3 Zrotation Yrotation Xrotation
					JOINT Neck
					{
						OFFSET -0.09296 1.90118 0.07197
						CHANNELS 3 Zrotation Yrotation Xrotation
						JOINT Head
						{
							OFFSET 0.08490 1.89526 -0.24604
							CHANNELS 3 Zrotation Yrotation Xrotation
							End Site
							{
								OFFSET 0.03186 1.92109 -0.09483
							}
						}
					}
				}
				JOINT LeftCollar
				{
					OFFSET 0 0 0
					CHANNELS 3 Zrotation Yrotation Xrotation
					JOINT LeftShoulder
					{
						OFFSET 3.21569 1.44644 -0.03720
CHANNELS 3 Zrotation Xrotation Yrotation
						JOINT LeftElbow
						{
OFFSET 0 -5.476510 -0.000000
CHANNELS 3 Zrotation Xrotation Yrotation
							JOINT LeftWrist
							{
OFFSET 0 -3.090580 -0.000000
CHANNELS 3 Zrotation Xrotation Yrotation
								JOINT lhand
								{
									OFFSET 0 0 0
CHANNELS 3 Zrotation Xrotation Yrotation
									JOINT LFingers
									{
OFFSET 0 -0.771610 -0.000000
CHANNELS 3 Zrotation Xrotation Yrotation
										End Site
										{
OFFSET 0 -0.622090 -0.000000
										}
									}
								}
								JOINT LThumb
								{
OFFSET 0 0.000000 0.000000
CHANNELS 3 Zrotation Xrotation Yrotation
									End Site
									{
OFFSET 0 -0.631590 0.631590
									}
								}
							}
						}
					}
				}
				JOINT RightCollar
				{
					OFFSET 0 0 0
					CHANNELS 3 Zrotation Yrotation Xrotation
					JOINT RightShoulder
					{
						OFFSET -3.38693 1.28904 -0.07093
CHANNELS 3 Zrotation Xrotation Yrotation
						JOINT RightElbow
						{
OFFSET 0 -5.141820 -0.000000
CHANNELS 3 Zrotation Xrotation Yrotation
							JOINT RightWrist
							{
OFFSET 0 -3.355650 -0.000000
CHANNELS 3 Zrotation Xrotation Yrotation
								JOINT rhand
								{
									OFFSET 0 0 0
CHANNELS 3 Zrotation Xrotation Yrotation
									JOINT RFingers
									{
OFFSET 0 -0.801040 -0.000000
CHANNELS 3 Zrotation Xrotation Yrotation
										End Site
										{
OFFSET 0 -0.645820 -0.000000
										}
									}
								}
								JOINT RThumb
								{
OFFSET 0 0.000000 0.000000
CHANNELS 3 Zrotation Xrotation Yrotation
									End Site
									{
OFFSET 0 -0.655680 0.655680
									}
								}
							}
						}
					}
				}
			}
		}
	}
}
MOTION
Frames: 13
Frame Time: .0083333
0.9745 17.9867 -1.4927 0.8946 -8.1416 7.1346 0.0000 0.0000 0.0000 -22.0335 -1.7820 -22.2536 2.2938 9.4529 27.2227 0.6406 8.6717 -20.6718 0.2976 -3.5077 -9.6957 0.0000 0.0000 0.0000 13.4742 8.3643 -23.3886 -2.5417 -9.9134 28.6967 0.0518 -10.1380 -13.5710 -0.5869 4.9051 -13.6381 0.8801 3.4538 13.7253 1.0636 4.5146 12.5632 0.2451 2.2553 5.6610 -3.5391 -6.4302 1.7082 6.0650 -8.3253 -11.3612 2.9173 -4.2733 -3.5779 0.0000 0.0000 0.0000 22.6092 -66.0247 -59.8006 54.1744 -54.5464 29.5423 32.598 -57.5055 -50.0905 0.0 0.0 0.0 -7.1250 0.0 0.0 -40.3260 83.3034 35.7924 0.0000 0.0000 0.0000 -24.0317 -56.7639 45.592 -54.9427 -54.8043 -30.1692 -29.4685 -68.3032 4.5448 0.0 0.0 0.0 7.1250 0.0 -0.0 -2.3410 35.1886 -0.5645
0.9737 17.9724 -1.5153 0.8463 -8.2774 7.0780 0.0000 0.0000 0.0000 -21.9411 -1.7098 -22.6216 2.3871 9.6296 27.7854 0.6707 8.5494 -20.8598 0.3138 -3.6011 -9.9569 0.0000 0.0000 0.0000 13.5282 8.4436 -23.6013 -2.5979 -10.0137 29.0211 0.0283 -9.9789 -13.7403 -0.5535 4.7657 -13.2416 1.0039 3.4240 14.2475 1.0624 4.4853 12.6230 0.1475 2.2490 5.4597 -3.5624 -6.4440 1.6767 6.0367 -8.3506 -11.2361 2.9048 -4.2835 -3.5268 -0.0000 0.0000 0.0000 22.0424 -65.6463 -60.1665 54.2711 -54.5793 29.6211 29.8679 -59.2342 -50.4257 0.0 0.0 0.0 -7.1250 0.0 0.0 -44.9843 82.2079 39.1932 -0.0000 0.0000 0.0000 -23.2528 -56.3354 46.1463 -55.2729 -54.9127 -30.4392 -29.7163 -68.3446 4.3482 0.0 0.0 0.0 7.1250 0.0 -0.0 -2.5476 34.9742 -0.6277
0.9716 17.9575 -1.5422 0.9389 -8.4487 7.2595 0.0000 0.0000 0.0000 -21.9961 -1.7049 -23.2522 2.4727 9.7881 28.2932 0.6752 8.5207 -20.8785 0.3265 -3.6728 -10.1578 0.0000 0.0000 0.0000 13.3825 8.5907 -24.1595 -2.6634 -10.1292 29.3960 0.0087 -9.7977 -13.8105 -0.5204 4.6232 -12.8368 0.9810 3.4183 14.5919 0.9714 4.4779 12.5824 0.0416 2.2470 5.2378 -3.5611 -6.4598 1.5456 6.0725 -8.3702 -11.0177 2.8999 -4.2936 -3.4229 0.0000 -0.0000 0.0000 21.6762 -65.2182 -60.4835 54.4431 -54.6375 29.7613 28.6932 -59.9756 -50.5242 0.0 0.0 0.0 -7.1250 0.0 0.0 -46.4704 81.7212 40.1452 0.0000 -0.0000 0.0000 -22.3366 -55.9075 46.7603 -55.5907 -55.0157 -30.6994 -30.0951 -68.6057 3.9829 0.0 0.0 0.0 7.1250 0.0 -0.0 -2.8608 34.5698 -0.7332
0.9692 17.9391 -1.5685 1.0616 -8.6555 7.6983 0.0000 0.0000 0.0000 -22.0842 -1.7067 -24.1838 2.5559 9.9389 28.7791 0.6832 8.4111 -20.8625 0.3283 -3.6824 -10.1849 0.0000 0.0000 0.0000 13.1489 8.8471 -25.0109 -2.7307 -10.2458 29.7763 -0.0032 -9.6594 -13.8147 -0.5186 4.6153 -12.8146 0.6131 3.3003 15.4617 0.8847 4.2967 11.9314 0.0897 2.1326 4.0358 -3.5161 -6.2886 1.4230 5.8377 -8.1686 -10.2328 2.7688 -4.1810 -3.1499 0.0000 -0.0000 0.0000 21.6314 -63.8511 -60.3564 54.6282 -54.6997 29.9123 30.0269 -58.9106 -50.418 0.0 0.0 0.0 -7.1250 0.0 0.0 -44.8124 82.2769 39.092 0.0000 -0.0000 0.0000 -20.5384 -54.9712 48.6343 -55.8515 -55.0991 -30.9132 -30.4056 -68.6666 3.7098 0.0 0.0 0.0 7.1250 0.0 -0.0 -3.1149 34.2665 -0.8214
0.9688 17.9207 -1.5876 1.1191 -8.9137 7.9226 0.0000 0.0000 0.0000 -22.1200 -1.6248 -24.8259 2.6350 10.0794 29.2341 0.7045 8.2667 -20.9451 0.3104 -3.5816 -9.9024 0.0000 0.0000 0.0000 13.0049 9.1186 -25.5792 -2.7991 -10.3625 30.1588 -0.0175 -9.5448 -13.8945 -0.5354 4.6884 -13.0220 0.4946 3.3058 15.4515 0.8792 4.2872 12.0124 0.1547 2.1194 4.1217 -3.5775 -6.2640 1.3539 5.8101 -8.1422 -10.1174 2.7613 -4.1640 -3.0973 -0.0000 0.0000 0.0000 21.2671 -63.5508 -60.4443 54.8062 -54.7591 30.0576 31.2408 -57.829 -50.4868 0.0 0.0 0.0 -7.1250 0.0 0.0 -44.3563 82.8725 39.1388 -0.0000 0.0000 0.0000 -19.8472 -54.7685 49.1695 -55.9819 -55.1405 -31.0202 -30.4724 -68.4335 3.7094 0.0 0.0 0.0 7.1250 0.0 -0.0 -3.1700 34.2684 -0.8358
0.9712 17.9036 -1.6042 1.1791 -9.1599 7.8605 0.0000 0.0000 0.0000 -22.1690 -1.5359 -25.1109 2.7116 10.2129 29.6689 0.7234 8.2025 -21.0731 0.3069 -3.5615 -9.8461 0.0000 0.0000 0.0000 12.9023 9.2650 -25.7942 -2.8611 -10.4667 30.5016 -0.0495 -9.2918 -14.0759 -0.5084 4.5706 -12.6877 0.4991 3.2952 15.7517 0.8374 4.2688 12.1647 0.0993 2.1110 4.1366 -3.7138 -6.2647 1.1639 5.9366 -8.1393 -9.8841 2.8074 -4.1604 -2.9717 -0.0000 0.0000 0.0000 20.8555 -63.2553 -60.5637 55.1902 -54.8857 30.3715 32.1145 -57.2371 -50.3995 0.0 0.0 0.0 -7.1250 0.0 0.0 -43.0358 83.2379 38.2123 -0.0000 0.0000 0.0000 -19.0856 -54.5644 49.6828 -56.1286 -55.1868 -31.1405 -30.4294 -68.136 3.6894 0.0 0.0 0.0 7.1250 0.0 -0.0 -3.1343 34.2437 -0.8283
0.9736 17.8866 -1.6208 1.2348 -9.3653 7.8139 0.0000 0.0000 0.0000 -22.1645 -1.5669 -25.3718 2.7864 10.3410 30.0883 0.7826 7.9629 -21.4360 0.2488 -3.2096 -8.8628 0.0000 0.0000 0.0000 12.8242 9.3268 -26.0093 -2.9146 -10.5555 30.7951 -0.0754 -9.0577 -14.1868 -0.4966 4.5182 -12.5393 0.5648 3.2561 16.0629 0.7600 4.2209 12.3083 -0.0247 2.0934 4.1443 -3.7572 -6.2603 0.7438 5.9929 -8.1284 -9.5073 2.7964 -4.1507 -2.7621 0.0000 0.0000 0.0000 20.5622 -63.009 -60.6815 55.5828 -55.0131 30.6929 33.7452 -56.3757 -49.6236 0.0 0.0 0.0 -7.1250 0.0 0.0 -35.6226 83.5782 31.7089 0.0000 0.0000 0.0000 -18.265 -54.3872 50.2137 -56.2829 -55.2352 -31.2673 -30.4724 -67.7056 3.7742 0.0 0.0 0.0 7.1250 0.0 -0.0 -3.1707 34.3434 -0.8303
0.9728 17.8706 -1.6380 1.2715 -9.5764 7.9406 0.0000 0.0000 0.0000 -22.0882 -1.6734 -25.8262 2.8663 10.4753 30.5301 0.8717 7.5173 -21.9052 0.1463 -2.4645 -6.7913 0.0000 0.0000 0.0000 12.7568 9.4332 -26.4233 -2.9649 -10.6381 31.0688 -0.0857 -8.9260 -14.1825 -0.5352 4.6875 -13.0193 0.5416 3.2285 16.1950 0.7203 4.1789 12.3863 -0.0529 2.0714 4.1631 -3.8148 -6.2458 0.3563 6.0046 -8.1084 -9.1399 2.7758 -4.1343 -2.5653 0.0000 -0.0000 0.0000 20.0414 -62.6912 -60.869 55.6423 -55.0323 30.7417 34.3043 -55.7637 -48.6403 0.0 0.0 0.0 -7.1250 0.0 0.0 -28.1861 83.1948 24.8043 0.0000 -0.0000 0.0000 -17.4391 -54.2135 50.8038 -56.3914 -55.2691 -31.3565 -30.6258 -67.196 3.8778 0.0 0.0 0.0 7.1250 0.0 -0.0 -3.2988 34.4693 -0.8538
0.9709 17.8527 -1.6568 1.2616 -9.7859 8.1083 0.0000 0.0000 0.0000 -21.9884 -1.7315 -26.3579 2.9558 10.6231 31.0190 0.9292 7.2251 -22.2016 0.0993 -2.0320 -5.5942 0.0000 0.0000 0.0000 12.7320 9.6090 -26.8690 -3.0166 -10.7219 31.3475 -0.0899 -8.8739 -14.1825 -0.5632 4.8068 -13.3583 0.5015 3.2221 16.3031 0.7077 4.1627 12.4185 -0.0470 2.0601 4.1406 -3.8057 -6.2242 0.0831 5.9745 -8.0827 -8.7672 2.7358 -4.1166 -2.3937 0.0000 0.0000 0.0000 19.4263 -62.3393 -61.0883 55.5913 -55.0159 30.6999 33.4649 -55.7716 -48.5891 0.0 0.0 0.0 -7.1250 0.0 0.0 -29.2935 82.7698 25.5615 0.0000 0.0000 0.0000 -16.5545 -54.0128 51.3917 -56.4263 -55.2799 -31.3851 -30.8052 -66.7862 3.9454 0.0 0.0 0.0 7.1250 0.0 -0.0 -3.4480 34.5547 -0.8854
0.9712 17.8330 -1.6747 1.2441 -9.9685 8.2288 0.0000 0.0000 0.0000 -21.9348 -1.6850 -26.8830 3.0531 10.7805 31.5431 0.9475 7.1343 -22.2973 0.1089 -2.1278 -5.8590 0.0000 0.0000 0.0000 12.6944 9.7953 -27.2458 -3.0734 -10.8129 31.6515 -0.1164 -8.6816 -14.3593 -0.4877 4.4779 -12.4253 0.5090 3.2224 16.5086 0.7109 4.1606 12.4299 -0.0590 2.0582 4.0471 -3.8024 -6.2114 -0.1705 5.9360 -8.0706 -8.3628 2.6946 -4.1051 -2.2157 0.0000 0.0000 0.0000 18.7269 -62.0469 -61.4111 55.6271 -55.0274 30.7292 31.377 -56.8596 -49.5089 0.0 0.0 0.0 -7.1250 0.0 0.0 -37.7294 82.4011 32.8283 0.0000 0.0000 0.0000 -15.8213 -53.8006 51.8547 -56.4203 -55.278 -31.3801 -30.994 -66.574 3.847 0.0 0.0 0.0 7.1250 0.0 -0.0 -3.6027 34.4478 -0.9346
0.9706 17.8152 -1.6902 1.2360 -10.1135 8.2639 0.0000 0.0000 0.0000 -21.9323 -1.5271 -27.3266 3.1509 10.9354 32.0623 0.9363 7.1579 -22.2151 0.1424 -2.4316 -6.7000 0.0000 0.0000 0.0000 12.6746 9.9301 -27.5347 -3.1340 -10.9089 31.9733 -0.1377 -8.5488 -14.5262 -0.4541 4.3229 -11.9868 0.4961 3.1865 16.8173 0.7495 4.1083 12.4659 -0.0209 2.0282 3.9230 -3.9461 -6.2105 -0.4729 5.9140 -8.0747 -7.9827 2.6838 -4.0976 -2.0312 -0.0000 0.0000 0.0000 18.1722 -61.7891 -61.576 55.7174 -55.0563 30.8032 30.2478 -57.503 -50.0169 0.0 0.0 0.0 -7.1250 0.0 0.0 -42.0572 82.1701 36.5323 -0.0000 0.0000 0.0000 -15.1027 -53.6841 52.4051 -56.3319 -55.2505 -31.3075 -31.1764 -66.4409 3.5243 0.0 0.0 0.0 7.1250 0.0 -0.0 -3.7470 34.0791 -1.0057
0.9686 17.7985 -1.7075 1.2866 -10.2578 8.3135 0.0000 0.0000 0.0000 -21.9910 -1.3999 -27.7801 3.2425 11.0776 32.5422 0.9102 7.2948 -22.0836 0.1984 -2.8684 -7.9126 0.0000 0.0000 0.0000 12.6020 10.0583 -27.8768 -3.2007 -11.0131 32.3242 -0.1487 -8.4896 -14.6226 -0.4668 4.3821 -12.1542 0.4446 3.1566 17.1155 0.7525 4.0595 12.5031 0.0019 1.9990 3.8062 -4.0815 -6.2349 -0.8574 5.9063 -8.1093 -7.5657 2.6717 -4.1052 -1.8196 -0.0000 0.0000 0.0000 17.7508 -61.5919 -61.6952 55.8737 -55.1062 30.9314 31.4406 -56.2685 -50.159 0.0 0.0 0.0 -7.1250 0.0 0.0 -41.9028 82.7976 36.8571 -0.0000 0.0000 0.0000 -14.3857 -53.534 52.872 -56.3126 -55.2445 -31.2917 -31.2725 -66.1363 3.3436 0.0 0.0 0.0 7.1250 0.0 -0.0 -3.8220 33.8717 -1.0452
0.9671 17.7813 -1.7250 1.2997 -10.4102 8.4511 0.0000 0.0000 0.0000 -21.9150 -1.4906 -28.2686 3.3283 11.2084 32.9860 0.9580 7.1063 -22.3693 0.1709 -2.6631 -7.3422 0.0000 0.0000 0.0000 12.5372 10.2309 -28.3316 -3.2712 -11.1216 32.6911 -0.1662 -8.3747 -14.7505 -0.4559 4.3316 -12.0116 0.4651 3.1334 17.2944 0.7349 4.0289 12.5273 -0.0328 1.9847 3.7438 -4.1652 -6.2525 -1.0837 5.9358 -8.1324 -7.2917 2.6759 -4.1117 -1.6848 -0.0000 0.0000 0.0000 17.2435 -61.44 -62.0547 55.9780 -55.1393 31.0169 32.9375 -55.1125 -49.8433 0.0 0.0 0.0 -7.1250 0.0 0.0 -38.1811 83.3255 33.8612 -0.0000 0.0000 0.0000 -13.6563 -53.3423 53.2601 -56.4044 -55.2731 -31.3671 -31.2812 -65.8293 3.2788 0.0 0.0 0.0 7.1250 0.0 -0.0 -3.8276 33.7964 -1.0537
